<?xml version="1.0" encoding="UTF-8"?>
<svg id="_圖層_2" data-name="圖層 2" xmlns="http://www.w3.org/2000/svg" viewBox="0 0 82.42 82.43">
  <defs>
    <style>
      .cls-1 {
        fill: #7e8592;
      }
    </style>
  </defs>
  <g id="_選擇_初始_" data-name="選擇（初始）">
    <path class="cls-1" d="M82.42,4.04v2.09l-24.02,72.16c-.9,2.13-2.38,3.54-4.63,4.14h-1.93c-1.47-.46-2.72-1.15-3.86-2.17l-15.61-30.11L2.26,34.53c-3.57-3.61-2.89-8.47,1.88-10.49C28.4,16.1,52.52,7.62,76.86.01c2.84-.18,4.86,1.27,5.55,4.02ZM72.44,6.45L5.91,28.54c-1.04.48-1.42,1.03-.67,2.05,8.45,4.46,16.97,8.95,25.5,13.29.47.24,2.65,1.42,2.95,1.34L72.44,6.45ZM75.98,9.99l-38.77,38.75c-.08.3,1.4,3.05,1.67,3.59,4.2,8.34,8.63,16.62,12.97,24.86,1.02.75,1.57.36,2.05-.67L75.98,9.99Z"/>
  </g>
</svg>