<?xml version="1.0" encoding="UTF-8"?>
<svg id="_圖層_2" data-name="圖層 2" xmlns="http://www.w3.org/2000/svg" viewBox="0 0 1704.83 681.93">
  <defs>
    <style>
      .cls-1 {
        fill: #fbda0c;
      }

      .cls-1, .cls-2 {
        fill-rule: evenodd;
      }

      .cls-3, .cls-2 {
        fill: #0057ad;
      }
    </style>
  </defs>
  <g id="_雜物" data-name="雜物">
    <g>
      <path class="cls-2" d="M1704.59,681.93H0V0h1704.83v681.93h-.24Z"/>
      <path class="cls-1" d="M34.1,340.97c0,167.63,342.95,306.87,818.44,306.87s818.2-139.24,818.2-306.87S1327.78,34.1,852.54,34.1,34.1,173.34,34.1,340.97Z"/>
      <path class="cls-3" d="M791.86,443.34c5.38,7.63,11.24,14.79,18.08,21.23h-184.48c0-7.16-7.09-21.71-14.91-33.15-7.82-11.45-50.09-74.18-50.09-74.18v86.1c0,7.16,0,14.07,3.67,21.23h-153.69c3.67-7.16,3.67-14.07,3.67-21.23v-204.65c0-7.16,0-14.07-3.67-21.23h153.69c-3.67,7.16-3.67,14.07-3.67,21.23v89.44s49.11-62.49,60.35-77.04c8.55-10.97,19.06-26.48,19.06-33.63h160.29c-11,7.16-23.21,20.04-33.23,31.96-8.8,10.49-58.64,69.88-58.64,69.88,0,0,73.79,109.96,83.57,124.03h0ZM840.24,238.69v204.65c0,7.16,0,14.07-3.67,21.23h296.64v-68.69c-7.33,3.58-14.42,3.58-21.75,3.58h-124.86v-32.44h119.97v-52h-119.97v-32.67h124.86c7.33,0,14.42,0,21.75,3.34v-68.45h-296.64c3.67,7.39,3.67,14.31,3.67,21.47ZM1544.2,443.34c2.44,7.87,6.6,15.03,11.97,21.23h-160.78c.73-7.16-1.95-14.07-4.89-21.23,0,0-2.44-5.72-5.86-14.07l-1.47-3.58h-92.61l-1.47,3.82s-2.69,6.92-5.13,14.07c-2.44,7.16-5.13,14.07-4.15,21.23h-126.82c5.18-6.26,9.08-13.47,11.49-21.23l75.99-204.65c2.69-7.16,5.38-14.07,4.4-21.23h214.29c-1.95,7.16,1.96,14.07,4.64,21.23,6.35,15.5,75.01,190.57,80.39,204.41ZM1362.9,373.45l-22.48-57.24c-1.96-5.25-3.67-10.73-4.89-16.22-.98,5.53-2.45,10.95-4.4,16.22-.73,2.39-10.26,27.43-21.26,57.24h53.03ZM337.62,217.46h-167.13c3.67,7.16,3.67,14.07,3.67,21.23v204.65c0,7.16,0,14.07-3.67,21.23h167.13c-3.67-7.16-3.67-14.07-3.67-21.23v-204.65c0-7.16,0-14.07,3.67-21.23ZM1492.89,237.02c-.73-17.41,13.2-31.96,31.03-32.44h2.2c18.08-.24,32.99,13.59,33.23,31.24v1.19c.49,17.89-13.93,32.92-32.5,33.39-18.33.48-33.72-13.6-34.21-31.72.24-.48.24-1.19.24-1.67h0ZM1499.49,237.02c0,14.31,11.97,26,26.63,26s26.63-11.69,26.63-26-11.97-26-26.63-26c-14.17-.48-26.15,10.26-26.63,24.09,0,0,0,1.91,0,1.91ZM1519.53,256.34h-5.86v-39.12h14.91c7.09.24,12.46,5.72,12.46,12.64,0,4.77-2.69,9.06-7.09,11.45l8.55,15.03h-6.6l-7.82-13.83h-8.55s0,13.83,0,13.83ZM1519.53,237.02h8.06c3.91.24,7.33-2.63,7.33-6.44s-2.69-7.16-6.6-7.16h-8.8v13.6Z"/>
    </g>
  </g>
</svg>